<svg width="200" height="200" viewBox="0 0 200 200" fill="none" xmlns="http://www.w3.org/2000/svg">
  <circle cx="99.9526" cy="99.9526" r="99.9526" fill="#E1EAFF"/>
  <path d="M46.4962 110.909H48.4777V119.519C48.4777 120.435 48.2625 121.247 47.8321 121.955C47.4017 122.658 46.7966 123.212 46.0168 123.616C45.237 124.017 44.3229 124.217 43.2746 124.217C42.2306 124.217 41.3186 124.017 40.5388 123.616C39.759 123.212 39.1539 122.658 38.7235 121.955C38.2931 121.247 38.0779 120.435 38.0779 119.519V110.909H40.053V119.359C40.053 119.952 40.183 120.478 40.4429 120.938C40.7071 121.398 41.08 121.761 41.5615 122.025C42.0431 122.285 42.6141 122.415 43.2746 122.415C43.9394 122.415 44.5125 122.285 44.9941 122.025C45.4798 121.761 45.8506 121.398 46.1063 120.938C46.3662 120.478 46.4962 119.952 46.4962 119.359V110.909ZM51.1959 127.682V114.182H53.0624V115.773H53.2222C53.333 115.569 53.4928 115.332 53.7016 115.064C53.9104 114.795 54.2002 114.561 54.5709 114.361C54.9417 114.156 55.4317 114.054 56.0411 114.054C56.8337 114.054 57.5411 114.254 58.1633 114.655C58.7854 115.055 59.2733 115.633 59.627 116.387C59.985 117.141 60.164 118.049 60.164 119.11C60.164 120.171 59.9871 121.081 59.6334 121.839C59.2797 122.594 58.7939 123.175 58.176 123.585C57.5582 123.989 56.8529 124.192 56.0603 124.192C55.4637 124.192 54.9758 124.092 54.5965 123.891C54.2215 123.691 53.9275 123.457 53.7144 123.188C53.5013 122.92 53.3373 122.681 53.2222 122.472H53.1072V127.682H51.1959ZM53.0688 119.091C53.0688 119.781 53.1689 120.386 53.3692 120.906C53.5695 121.426 53.8593 121.833 54.2385 122.127C54.6178 122.417 55.0823 122.562 55.632 122.562C56.203 122.562 56.6803 122.411 57.0638 122.108C57.4474 121.801 57.7371 121.386 57.9332 120.862C58.1334 120.337 58.2336 119.747 58.2336 119.091C58.2336 118.443 58.1356 117.862 57.9395 117.346C57.7478 116.83 57.458 116.423 57.0702 116.125C56.6867 115.827 56.2073 115.678 55.632 115.678C55.078 115.678 54.6093 115.82 54.2258 116.106C53.8465 116.391 53.5589 116.79 53.3628 117.301C53.1668 117.812 53.0688 118.409 53.0688 119.091ZM64.2165 110.909V124H62.3053V110.909H64.2165ZM70.9234 124.198C70.0029 124.198 69.1997 123.987 68.5136 123.565C67.8275 123.143 67.2948 122.553 66.9156 121.795C66.5363 121.036 66.3467 120.15 66.3467 119.136C66.3467 118.117 66.5363 117.227 66.9156 116.464C67.2948 115.701 67.8275 115.109 68.5136 114.687C69.1997 114.265 70.0029 114.054 70.9234 114.054C71.8438 114.054 72.6471 114.265 73.3332 114.687C74.0193 115.109 74.5519 115.701 74.9312 116.464C75.3105 117.227 75.5001 118.117 75.5001 119.136C75.5001 120.15 75.3105 121.036 74.9312 121.795C74.5519 122.553 74.0193 123.143 73.3332 123.565C72.6471 123.987 71.8438 124.198 70.9234 124.198ZM70.9298 122.594C71.5264 122.594 72.0207 122.436 72.4127 122.121C72.8048 121.805 73.0945 121.386 73.282 120.862C73.4738 120.337 73.5697 119.76 73.5697 119.129C73.5697 118.503 73.4738 117.928 73.282 117.403C73.0945 116.875 72.8048 116.451 72.4127 116.131C72.0207 115.812 71.5264 115.652 70.9298 115.652C70.3289 115.652 69.8303 115.812 69.434 116.131C69.042 116.451 68.7501 116.875 68.5583 117.403C68.3708 117.928 68.2771 118.503 68.2771 119.129C68.2771 119.76 68.3708 120.337 68.5583 120.862C68.7501 121.386 69.042 121.805 69.434 122.121C69.8303 122.436 70.3289 122.594 70.9298 122.594ZM80.4907 124.217C79.8685 124.217 79.306 124.102 78.8032 123.872C78.3003 123.638 77.9019 123.299 77.6079 122.856C77.3181 122.413 77.1732 121.869 77.1732 121.226C77.1732 120.672 77.2797 120.216 77.4928 119.858C77.7059 119.5 77.9935 119.217 78.3557 119.008C78.718 118.799 79.1228 118.641 79.5702 118.535C80.0177 118.428 80.4736 118.347 80.9381 118.292C81.5262 118.224 82.0035 118.168 82.3699 118.126C82.7364 118.079 83.0028 118.004 83.1689 117.902C83.3351 117.8 83.4182 117.634 83.4182 117.403V117.359C83.4182 116.8 83.2606 116.368 82.9452 116.061C82.6341 115.754 82.1697 115.601 81.5518 115.601C80.9083 115.601 80.4012 115.744 80.0305 116.029C79.664 116.31 79.4104 116.624 79.2698 116.969L77.4736 116.56C77.6867 115.963 77.9978 115.482 78.4069 115.115C78.8202 114.744 79.2954 114.476 79.8323 114.31C80.3692 114.139 80.9339 114.054 81.5262 114.054C81.9182 114.054 82.3337 114.101 82.7726 114.195C83.2158 114.284 83.6292 114.45 84.0127 114.693C84.4005 114.936 84.718 115.283 84.9651 115.735C85.2123 116.183 85.3358 116.764 85.3358 117.48V124H83.4694V122.658H83.3927C83.2691 122.905 83.0837 123.148 82.8366 123.386C82.5894 123.625 82.2719 123.823 81.8841 123.981C81.4964 124.138 81.0319 124.217 80.4907 124.217ZM80.9062 122.683C81.4346 122.683 81.8863 122.579 82.2613 122.37C82.6405 122.161 82.9282 121.888 83.1242 121.552C83.3245 121.211 83.4246 120.847 83.4246 120.459V119.193C83.3564 119.261 83.2243 119.325 83.0283 119.385C82.8366 119.44 82.6171 119.489 82.3699 119.532C82.1228 119.57 81.882 119.607 81.6476 119.641C81.4133 119.67 81.2172 119.696 81.0596 119.717C80.6888 119.764 80.3501 119.843 80.0432 119.954C79.7407 120.065 79.4978 120.224 79.3145 120.433C79.1356 120.638 79.0461 120.911 79.0461 121.251C79.0461 121.724 79.2208 122.082 79.5702 122.325C79.9197 122.564 80.365 122.683 80.9062 122.683ZM91.5569 124.192C90.7643 124.192 90.0569 123.989 89.4347 123.585C88.8169 123.175 88.3311 122.594 87.9774 121.839C87.6279 121.081 87.4532 120.171 87.4532 119.11C87.4532 118.049 87.6301 117.141 87.9838 116.387C88.3417 115.633 88.8318 115.055 89.4539 114.655C90.0761 114.254 90.7813 114.054 91.5697 114.054C92.1791 114.054 92.6691 114.156 93.0399 114.361C93.4149 114.561 93.7046 114.795 93.9092 115.064C94.118 115.332 94.2799 115.569 94.395 115.773H94.51V110.909H96.4213V124H94.5548V122.472H94.395C94.2799 122.681 94.1137 122.92 93.8964 123.188C93.6833 123.457 93.3893 123.691 93.0143 123.891C92.6393 124.092 92.1535 124.192 91.5569 124.192ZM91.9788 122.562C92.5285 122.562 92.993 122.417 93.3722 122.127C93.7558 121.833 94.0455 121.426 94.2416 120.906C94.4419 120.386 94.542 119.781 94.542 119.091C94.542 118.409 94.444 117.812 94.248 117.301C94.0519 116.79 93.7643 116.391 93.385 116.106C93.0058 115.82 92.537 115.678 91.9788 115.678C91.4035 115.678 90.9241 115.827 90.5406 116.125C90.157 116.423 89.8673 116.83 89.6713 117.346C89.4795 117.862 89.3836 118.443 89.3836 119.091C89.3836 119.747 89.4816 120.337 89.6776 120.862C89.8737 121.386 90.1634 121.801 90.547 122.108C90.9347 122.411 91.412 122.562 91.9788 122.562ZM104.066 124V110.909H108.732C109.751 110.909 110.595 111.094 111.264 111.465C111.933 111.836 112.433 112.343 112.766 112.987C113.098 113.626 113.264 114.346 113.264 115.147C113.264 115.952 113.096 116.677 112.759 117.32C112.427 117.96 111.924 118.467 111.251 118.842C110.582 119.212 109.74 119.398 108.726 119.398H105.517V117.723H108.547C109.19 117.723 109.712 117.612 110.113 117.391C110.514 117.165 110.808 116.858 110.995 116.47C111.183 116.082 111.276 115.641 111.276 115.147C111.276 114.653 111.183 114.214 110.995 113.83C110.808 113.447 110.511 113.146 110.107 112.929C109.706 112.712 109.178 112.603 108.521 112.603H106.041V124H104.066ZM115.426 124V114.182H117.338V124H115.426ZM116.392 112.667C116.059 112.667 115.774 112.556 115.535 112.335C115.301 112.109 115.184 111.84 115.184 111.529C115.184 111.214 115.301 110.945 115.535 110.724C115.774 110.498 116.059 110.385 116.392 110.385C116.724 110.385 117.007 110.498 117.242 110.724C117.48 110.945 117.6 111.214 117.6 111.529C117.6 111.84 117.48 112.109 117.242 112.335C117.007 112.556 116.724 112.667 116.392 112.667ZM124.044 124.198C123.094 124.198 122.276 123.983 121.59 123.553C120.908 123.118 120.384 122.519 120.017 121.756C119.651 120.994 119.468 120.12 119.468 119.136C119.468 118.138 119.655 117.259 120.03 116.496C120.405 115.729 120.934 115.13 121.616 114.7C122.297 114.269 123.101 114.054 124.025 114.054C124.771 114.054 125.436 114.192 126.02 114.469C126.603 114.742 127.074 115.126 127.432 115.62C127.794 116.114 128.01 116.692 128.078 117.352H126.218C126.116 116.892 125.881 116.496 125.515 116.163C125.152 115.831 124.667 115.665 124.057 115.665C123.525 115.665 123.058 115.805 122.657 116.087C122.261 116.364 121.952 116.76 121.731 117.276C121.509 117.787 121.398 118.392 121.398 119.091C121.398 119.807 121.507 120.425 121.724 120.945C121.941 121.464 122.248 121.867 122.645 122.153C123.045 122.438 123.516 122.581 124.057 122.581C124.419 122.581 124.748 122.515 125.042 122.383C125.34 122.246 125.589 122.053 125.79 121.801C125.994 121.55 126.137 121.247 126.218 120.893H128.078C128.01 121.528 127.803 122.095 127.458 122.594C127.113 123.092 126.65 123.484 126.071 123.77C125.495 124.055 124.82 124.198 124.044 124.198ZM134.705 114.182V115.716H129.342V114.182H134.705ZM130.78 111.83H132.691V121.117C132.691 121.488 132.747 121.767 132.858 121.955C132.968 122.138 133.111 122.263 133.286 122.332C133.465 122.396 133.659 122.428 133.867 122.428C134.021 122.428 134.155 122.417 134.27 122.396C134.385 122.374 134.475 122.357 134.539 122.344L134.884 123.923C134.773 123.966 134.615 124.009 134.411 124.051C134.206 124.098 133.951 124.124 133.644 124.128C133.141 124.136 132.672 124.047 132.237 123.859C131.803 123.672 131.451 123.382 131.183 122.99C130.914 122.598 130.78 122.106 130.78 121.513V111.83ZM143.038 119.928V114.182H144.956V124H143.077V122.3H142.975C142.749 122.824 142.386 123.261 141.888 123.61C141.394 123.955 140.778 124.128 140.041 124.128C139.41 124.128 138.852 123.989 138.366 123.712C137.884 123.431 137.505 123.016 137.228 122.466C136.955 121.916 136.819 121.237 136.819 120.427V114.182H138.73V120.197C138.73 120.866 138.916 121.398 139.286 121.795C139.657 122.191 140.139 122.389 140.731 122.389C141.089 122.389 141.445 122.3 141.798 122.121C142.156 121.942 142.453 121.671 142.687 121.309C142.926 120.947 143.043 120.487 143.038 119.928ZM147.524 124V114.182H149.371V115.741H149.474C149.653 115.213 149.968 114.798 150.42 114.495C150.876 114.188 151.391 114.035 151.967 114.035C152.086 114.035 152.226 114.039 152.388 114.048C152.555 114.056 152.685 114.067 152.778 114.08V115.908C152.702 115.886 152.565 115.863 152.369 115.837C152.173 115.808 151.977 115.793 151.781 115.793C151.329 115.793 150.927 115.888 150.573 116.08C150.224 116.268 149.947 116.53 149.742 116.866C149.538 117.199 149.435 117.578 149.435 118.004V124H147.524ZM158.312 124.198C157.345 124.198 156.512 123.991 155.813 123.578C155.118 123.161 154.581 122.575 154.202 121.82C153.827 121.062 153.64 120.173 153.64 119.155C153.64 118.149 153.827 117.263 154.202 116.496C154.581 115.729 155.11 115.13 155.787 114.7C156.469 114.269 157.266 114.054 158.178 114.054C158.732 114.054 159.269 114.146 159.789 114.329C160.309 114.512 160.775 114.8 161.189 115.192C161.602 115.584 161.928 116.093 162.167 116.719C162.405 117.342 162.525 118.098 162.525 118.989V119.666H154.72V118.234H160.652C160.652 117.732 160.549 117.286 160.345 116.898C160.14 116.506 159.853 116.197 159.482 115.972C159.116 115.746 158.685 115.633 158.191 115.633C157.654 115.633 157.185 115.765 156.785 116.029C156.388 116.289 156.081 116.63 155.864 117.052C155.651 117.469 155.544 117.923 155.544 118.413V119.532C155.544 120.188 155.66 120.746 155.89 121.207C156.124 121.667 156.45 122.018 156.868 122.261C157.285 122.5 157.773 122.619 158.331 122.619C158.694 122.619 159.024 122.568 159.322 122.466C159.62 122.359 159.878 122.202 160.096 121.993C160.313 121.784 160.479 121.526 160.594 121.219L162.403 121.545C162.258 122.078 161.998 122.545 161.623 122.945C161.253 123.342 160.786 123.651 160.223 123.872C159.665 124.089 159.028 124.198 158.312 124.198Z" fill="#4C7EFF"/>
  <path d="M96.125 78.0313H93.9375C93.0673 78.0313 92.2327 78.377 91.6173 78.9923C91.002 79.6077 90.6562 80.4423 90.6562 81.3125V94.4375C90.6562 95.3077 91.002 96.1423 91.6173 96.7577C92.2327 97.373 93.0673 97.7188 93.9375 97.7188H107.063C107.933 97.7188 108.767 97.373 109.383 96.7577C109.998 96.1423 110.344 95.3077 110.344 94.4375V81.3125C110.344 80.4423 109.998 79.6077 109.383 78.9923C108.767 78.377 107.933 78.0313 107.063 78.0313H104.875M104.875 73.6563L100.5 69.2812M100.5 69.2812L96.125 73.6563M100.5 69.2812V87.875" stroke="#4C7EFF" stroke-width="2" stroke-linecap="round" stroke-linejoin="round"/>
</svg>