<?xml version="1.0"?>
<svg xmlns="http://www.w3.org/2000/svg" viewBox="0 0 80 80">
    <path d="M 17.210938 9.0058594 C 16.336424 9.0128502 15.476981 9.4373609 14.960938 10.210938 C 11.338048 15.644755 10.212437 21.209273 11.529297 25.755859 C 12.658309 29.647644 15.203016 32.254537 17.400391 33.992188 C 16.580573 35.545423 16 37.460466 16 40 C 16 47.92984 11.199219 54.400391 11.199219 54.400391 A 1.0001 1.0001 0 0 0 11 55 L 11 66 C 11 68.749516 13.250484 71 16 71 L 22 71 A 1.0001 1.0001 0 0 0 23 69.970703 C 23.839057 70.607252 24.872064 71 26 71 L 32 71 A 1.0001 1.0001 0 0 0 32.980469 69.804688 C 32.980469 69.804688 32.781414 68.772991 32.070312 67.751953 C 31.500449 66.933712 30.398636 66.222743 29 65.914062 L 29 59.546875 C 29.394595 59.326392 30.631096 58.657853 32.5625 57.294922 C 34.388193 56.006588 36.455256 54.358861 37.982422 52.501953 C 39.899601 53.186733 42.183698 53.75681 45 53.890625 L 45 65.990234 C 45 68.744581 47.258414 70.996458 50.011719 70.990234 L 55.001953 70.978516 A 1.0001 1.0001 0 0 0 55.011719 70.978516 L 55.011719 70.990234 L 60.001953 70.978516 A 1.0001 1.0001 0 0 0 61 69.978516 C 61 69.978516 61.01301 69.022993 60.517578 68.039062 C 60.131704 67.272812 59.203503 66.607933 58 66.287109 L 58.013672 47.556641 C 59.135748 46.092365 60 44.246606 60 42.009766 L 60 32.005859 C 60 31.172859 60.04325 30.305961 60.279297 29.808594 C 60.515342 29.311227 60.763155 29.005859 62.007812 29.005859 C 67.271333 29.005859 70.191927 26.786529 71.599609 24.53125 C 73.007292 22.275971 73 20 73 20 A 1.0001 1.0001 0 0 0 72.240234 19.029297 C 72.240234 19.029297 70.650478 18.634407 68.865234 17.845703 C 67.079991 17.056999 65.191888 15.823978 64.568359 14.576172 C 63.31217 12.062192 61.738058 10.620737 60.216797 9.8613281 C 58.695536 9.1019196 57.259918 9.0253906 56.34375 9.0253906 L 53.679688 9.0253906 C 50.509563 9.0253906 48.372974 11.298946 47.482422 13.660156 C 47.075272 14.740033 43.860485 23.443773 42.753906 26.322266 C 42.320866 27.448713 41.426891 28.088108 40.300781 28.496094 C 39.174672 28.904079 37.865193 29.013672 36.951172 29.013672 L 25.367188 29.013672 C 24.987476 29.013672 24.402851 29.099692 23.787109 29.21875 C 22.553268 28.927279 20.991225 28.442052 19.650391 27.640625 C 18.272312 26.816937 17.174145 25.724263 16.742188 24.220703 C 15.844036 21.093775 16.675638 17.437719 19.482422 13.228516 A 1.0001 1.0001 0 0 0 19.482422 13.226562 C 20.307218 11.987846 19.966876 10.28639 18.730469 9.4589844 C 18.265718 9.1477783 17.735646 9.0016649 17.210938 9.0058594 z M 17.080078 11.005859 C 17.257489 10.970325 17.448807 11.007035 17.619141 11.121094 C 17.960734 11.349688 18.045563 11.777903 17.818359 12.119141 C 14.813139 16.625937 13.716465 20.928412 14.820312 24.771484 C 15.430356 26.894925 16.969126 28.36886 18.623047 29.357422 C 20.276968 30.345983 22.07929 30.894463 23.453125 31.210938 A 1.0001 1.0001 0 0 0 23.904297 31.210938 C 24.553577 31.060067 25.111606 31.013672 25.367188 31.013672 L 36.951172 31.013672 C 38.01015 31.013672 39.513281 30.907264 40.982422 30.375 C 41.325892 30.250562 41.669022 30.095849 42.003906 29.914062 A 1 1 0 0 0 42 30 A 1 1 0 0 0 43 31 A 1 1 0 0 0 44 30 A 1 1 0 0 0 43.244141 29.03125 C 43.817821 28.506639 44.307204 27.85557 44.621094 27.039062 C 45.746515 24.111556 48.972665 15.375357 49.353516 14.365234 C 50.034963 12.558445 51.449811 11.025391 53.679688 11.025391 L 56.34375 11.025391 C 57.149582 11.025391 58.19973 11.089051 59.324219 11.650391 C 60.448708 12.211732 61.680487 13.271683 62.779297 15.470703 C 63.820768 17.554897 66.094634 18.808985 68.056641 19.675781 C 68.458521 19.853328 68.802427 19.992331 69.111328 20.109375 C 68.883542 20.704169 69.008306 21.402837 69.488281 21.882812 L 70.318359 22.705078 C 70.201963 22.94969 70.070404 23.203403 69.902344 23.472656 C 68.811776 25.219878 66.737292 27.005859 62.007812 27.005859 C 61.198988 27.005859 60.502844 27.191425 59.929688 27.492188 C 59.976824 27.001207 60 26.502133 60 26 C 60 20.225904 56.837891 15.453125 56.837891 15.453125 A 1.0001 1.0001 0 0 0 55.998047 14.988281 A 1.0001 1.0001 0 0 0 55.162109 16.546875 C 55.162109 16.546875 58 20.966096 58 26 C 58 27.722826 57.68149 29.309111 57.042969 30.359375 C 56.404447 31.409639 55.56456 32 54 32 C 52.736375 32 51.851023 31.341748 51.132812 30.076172 C 50.414603 28.810596 50 26.960748 50 25.011719 C 50 22.024334 51.246094 19.460937 51.246094 19.460938 A 1.000126 1.000126 0 1 0 49.453125 18.574219 C 49.453125 18.574219 48 21.473103 48 25.011719 C 48 27.23269 48.435538 29.376076 49.392578 31.0625 C 50.349618 32.748924 51.964625 34 54 34 C 55.668912 34 57.033894 33.356507 58 32.359375 L 58 36 A 1 1 0 0 0 57 37 A 1 1 0 0 0 58 38 L 58 42.009766 C 58 44.594798 56.509867 46.564279 54.90625 47.955078 C 53.302633 49.345877 51.656998 50.070811 51.613281 50.089844 A 1.0001 1.0001 0 0 0 51.013672 51.005859 L 51 67 A 1.0001 1.0001 0 0 0 52 68 C 53.169 68 53.477855 68.433882 53.732422 68.939453 C 53.742992 68.960433 53.734421 68.961382 53.744141 68.982422 L 50.005859 68.990234 C 48.335163 68.994022 47 67.661888 47 65.990234 L 47 53.011719 A 1.0001 1.0001 0 0 0 46 52.011719 C 42.167167 52.011719 39.603918 51.072307 37.263672 50.083984 C 34.923426 49.095661 32.767467 48 30 48 A 1.0001 1.0001 0 0 0 29.105469 48.552734 C 29.105469 48.552734 28.439904 49.901342 26.644531 51.816406 C 24.849158 53.731471 21.96186 56.144554 17.59375 58.085938 A 1.0001 1.0001 0 0 0 17 59 L 17 66.648438 A 1.0001 1.0001 0 0 0 18 67.648438 C 19.330065 67.648438 19.971586 68.239569 20.427734 68.894531 C 20.464834 68.947801 20.443613 68.947201 20.476562 69 L 16 69 C 14.331516 69 13 67.668484 13 66 L 13 55.251953 C 13.369164 54.751871 18 48.395025 18 40 C 18 37.372565 18.599571 35.568311 19.423828 34.287109 A 1.0001 1.0001 0 0 0 19.177734 32.943359 C 17.085573 31.399213 14.508697 28.84458 13.451172 25.199219 C 12.342032 21.369806 13.24589 16.388495 16.625 11.320312 C 16.739165 11.149173 16.902667 11.041394 17.080078 11.005859 z M 62.005859 17 C 61.751359 16.999875 61.495781 17.097016 61.300781 17.291016 C 60.912781 17.680016 61.009766 18.988281 61.009766 18.988281 C 61.009766 18.988281 62.318031 19.086266 62.707031 18.697266 C 63.096031 18.308266 63.096031 17.681969 62.707031 17.292969 C 62.513031 17.098469 62.260359 17.000125 62.005859 17 z M 45 32 A 1 1 0 0 0 44 33 A 1 1 0 0 0 45 34 A 1 1 0 0 0 46 33 A 1 1 0 0 0 45 32 z M 48 34 A 1 1 0 0 0 47 35 A 1 1 0 0 0 48 36 A 1 1 0 0 0 49 35 A 1 1 0 0 0 48 34 z M 51 36 A 1 1 0 0 0 50 37 A 1 1 0 0 0 51 38 A 1 1 0 0 0 52 37 A 1 1 0 0 0 51 36 z M 55 37 A 1 1 0 0 0 54 38 A 1 1 0 0 0 55 39 A 1 1 0 0 0 56 38 A 1 1 0 0 0 55 37 z M 32 41 A 1 1 0 0 0 31 42 A 1 1 0 0 0 32 43 A 1 1 0 0 0 33 42 A 1 1 0 0 0 32 41 z M 31 45 A 1 1 0 0 0 30 46 A 1 1 0 0 0 31 47 A 1 1 0 0 0 32 46 A 1 1 0 0 0 31 45 z M 46 45 A 1 1 0 0 0 45 46 A 1 1 0 0 0 46 47 A 1 1 0 0 0 47 46 A 1 1 0 0 0 46 45 z M 46 49 A 1 1 0 0 0 45 50 A 1 1 0 0 0 46 51 A 1 1 0 0 0 47 50 A 1 1 0 0 0 46 49 z M 56.011719 49.628906 L 56 67 A 1.0001 1.0001 0 0 0 57 68 C 58.169 68 58.477855 68.433882 58.732422 68.939453 C 58.742992 68.960433 58.734421 68.961382 58.744141 68.982422 L 55.855469 68.988281 C 55.784129 68.694871 55.687526 68.376581 55.517578 68.039062 C 55.131745 67.272801 54.203503 66.607933 53 66.287109 L 53.013672 51.613281 C 53.621404 51.315054 54.702172 50.728393 56.011719 49.628906 z M 30.423828 50.078125 C 32.311974 50.179959 33.988566 50.873604 36.009766 51.728516 C 34.706615 53.158507 32.97089 54.557418 31.408203 55.660156 C 29.291435 57.153893 27.521484 58.123047 27.521484 58.123047 A 1.0001 1.0001 0 0 0 27 59 L 27 66.648438 A 1.0001 1.0001 0 0 0 28 67.648438 C 29.330065 67.648438 29.971586 68.239569 30.427734 68.894531 C 30.464834 68.947801 30.443613 68.947201 30.476562 69 L 26 69 C 24.331516 69 23 67.668484 23 66 L 23 57.355469 C 25.201449 55.935774 26.899617 54.469836 28.105469 53.183594 C 29.730121 51.450631 30.182694 50.512809 30.423828 50.078125 z M 21 58.544922 L 21 66 C 21 66.276473 21.028537 66.545946 21.072266 66.810547 C 20.506259 66.417661 19.812323 66.093344 19 65.914062 L 19 59.574219 C 19.705573 59.241892 20.362957 58.895809 21 58.544922 z"/>
</svg>
