<?xml version="1.0" encoding="UTF-8" standalone="no"?>
<!-- Generator: Adobe Illustrator 23.0.3, SVG Export Plug-In . SVG Version: 6.00 Build 0)  -->

<svg
   xmlns:dc="http://purl.org/dc/elements/1.1/"
   xmlns:cc="http://creativecommons.org/ns#"
   xmlns:rdf="http://www.w3.org/1999/02/22-rdf-syntax-ns#"
   xmlns:svg="http://www.w3.org/2000/svg"
   xmlns="http://www.w3.org/2000/svg"
   xmlns:sodipodi="http://sodipodi.sourceforge.net/DTD/sodipodi-0.dtd"
   xmlns:inkscape="http://www.inkscape.org/namespaces/inkscape"
   version="1.1"
   id="svg10"
   inkscape:version="0.92.4 (5da689c313, 2019-01-14)"
   sodipodi:docname="FCI_logo_vectorized.svg"
   x="0px"
   y="0px"
   viewBox="0 0 600 600"
   enable-background="new 0 0 600 600"
   xml:space="preserve"><title
   id="title113">FCI logo</title><metadata
   id="metadata111"><rdf:RDF><cc:Work
       rdf:about=""><dc:format>image/svg+xml</dc:format><dc:type
         rdf:resource="http://purl.org/dc/dcmitype/StillImage" /><dc:title>FCI logo</dc:title><cc:license
         rdf:resource="http://creativecommons.org/publicdomain/zero/1.0/" /><dc:description>Logo of Fédération Cynologique Internationale (FCI) (English: World Canine Organization)</dc:description><dc:contributor><cc:Agent><dc:title>Vectorised by Andis Grosšteins</dc:title></cc:Agent></dc:contributor></cc:Work><cc:License
       rdf:about="http://creativecommons.org/publicdomain/zero/1.0/"><cc:permits
         rdf:resource="http://creativecommons.org/ns#Reproduction" /><cc:permits
         rdf:resource="http://creativecommons.org/ns#Distribution" /><cc:permits
         rdf:resource="http://creativecommons.org/ns#DerivativeWorks" /></cc:License></rdf:RDF></metadata><defs
   id="defs109" /><sodipodi:namedview
   pagecolor="#ffffff"
   bordercolor="#666666"
   borderopacity="1"
   objecttolerance="10"
   gridtolerance="10"
   guidetolerance="10"
   inkscape:pageopacity="0"
   inkscape:pageshadow="2"
   inkscape:window-width="1680"
   inkscape:window-height="987"
   id="namedview107"
   showgrid="false"
   inkscape:zoom="0.556"
   inkscape:cx="-72.2"
   inkscape:cy="354"
   inkscape:window-x="-8"
   inkscape:window-y="-8"
   inkscape:window-maximized="1"
   inkscape:current-layer="g221" />










<g
   id="g221"
   transform="matrix(1.01,0,0,1.01,-3,-3)"><circle
     id="circle2"
     r="297"
     cy="300"
     cx="300"
     enable-background="new    "
     style="fill:#0089cc;stroke-width:0.995" /><circle
     id="circle4"
     r="273"
     cy="300"
     cx="300"
     enable-background="new    "
     stroke-miterlimit="10"
     style="fill:none;stroke:#ffffff;stroke-width:4;stroke-miterlimit:10" /><circle
     id="circle6"
     r="206"
     cy="300"
     cx="300"
     enable-background="new    "
     stroke-miterlimit="10"
     style="fill:none;stroke:#ffffff;stroke-width:3;stroke-miterlimit:10" /><ellipse
     id="ellipse8"
     ry="206"
     rx="137"
     cy="300"
     cx="293"
     enable-background="new    "
     stroke-miterlimit="10"
     style="fill:none;stroke:#ffffff;stroke-width:3;stroke-miterlimit:10" /><ellipse
     id="ellipse10"
     ry="206"
     rx="42.4"
     cy="300"
     cx="293"
     enable-background="new    "
     stroke-miterlimit="10"
     style="fill:none;stroke:#ffffff;stroke-width:3;stroke-miterlimit:10" /><path
     id="path12"
     d="m 94.3,300 c 0,19 2.7,38 7.7,56 h 396 c 5,-18 8,-37 8,-56 0,-19 -3,-38 -8,-56 H 102 c -5,18 -7.7,37 -7.7,56 z"
     enable-background="new    "
     stroke-miterlimit="10"
     inkscape:connector-curvature="0"
     style="fill:#0089cc;stroke:#ffffff;stroke-width:3;stroke-miterlimit:10" /><line
     id="line14"
     y2="176"
     x2="464"
     y1="176"
     x1="136"
     enable-background="new    "
     stroke-miterlimit="10"
     style="fill:none;stroke:#ffffff;stroke-width:3;stroke-miterlimit:10" /><line
     id="line16"
     y2="415"
     x2="130"
     y1="415"
     x1="470"
     enable-background="new    "
     stroke-miterlimit="10"
     style="fill:none;stroke:#ffffff;stroke-width:3;stroke-miterlimit:10" /><g
     id="g22">
	<g
   id="g20">
		<path
   style="fill:#ffffff"
   inkscape:connector-curvature="0"
   id="path18"
   d="m 324,534 h -49 v -10 h 49 z m 0,19 h -49 v -10 h 49 z" />
	</g>
</g><g
     id="g96">
	<circle
   style="fill:none"
   id="circle24"
   r="218"
   cy="300"
   cx="300" />
	<path
   style="fill:#ffffff"
   inkscape:connector-curvature="0"
   id="path26"
   d="m 194,534 -24,-12 3,-5 17,9 5,-9 -16,-8 3,-5 15,8 8,-15 6,3 z" />
	<path
   style="fill:#ffffff"
   inkscape:connector-curvature="0"
   id="path28"
   d="m 161,516 -23,-16 4,-5 17,13 6,-8 -16,-12 3,-4 16,11 7,-9 -18,-13 3,-4 23,16 z" />
	<path
   style="fill:#ffffff"
   inkscape:connector-curvature="0"
   id="path30"
   d="m 129,493 -11,-12 c -2,-2 -4,-4 -5,-6 -1,-2 -1,-5 0,-7 0,-2 1,-4 2,-6 1,-3 3,-5 4,-6 2,-2 4,-4 6,-5 2,-1 5,-2 7,-2 2,-1 4,0 7,1 2,0 4,2 6,4 l 11,11 z m 19,-29 -5,-4 c -2,-2 -4,-3 -5,-4 -2,-1 -4,-1 -5,-1 -2,0 -3,1 -5,2 -1,1 -2,2 -4,3 -1,2 -2,3 -3,5 -1,1 -2,2 -2,4 0,2 0,3 1,5 0,2 2,3 3,5 l 5,5 z" />
	<path
   style="fill:#ffffff"
   inkscape:connector-curvature="0"
   id="path32"
   d="m 98.6,460 -16.2,-23 4.7,-3 12.2,17 8.7,-6 -11.8,-16 4.8,-3 11,16 9,-7 -12,-17 4,-3 17,23 z" />
	<path
   style="fill:#ffffff"
   inkscape:connector-curvature="0"
   id="path34"
   d="m 76.3,427 -8.2,-16 c -1.9,-4 -2.5,-7 -1.8,-10 0.7,-3 2.5,-5 5.5,-6 1.6,-1 3.1,-1 4.4,-2 1.3,0 2.5,1 3.5,1 1,0 1.8,0 2.4,1 0.6,0 1,1 1.3,1 h 0.1 c -0.2,0 -0.3,-1 -0.3,-2 0,0 0.1,-1 0.4,-2 0.3,-1 0.8,-2 1.6,-2 0.7,-1 1.8,-2 3.1,-3 2,-1 3.8,-2 5.3,-3 1.5,-1 2.5,-2 2.8,-3 l 3.2,6 c -0.5,1 -1.2,2 -2.1,2 -0.9,1 -1.7,1 -2.6,2 -1.6,1 -2.9,1 -3.9,2 -1,1 -1.8,2 -2.3,3 -0.5,1 -0.7,2 -0.6,3 0.1,1 0.5,2 1.2,3 l 4.4,9 14.3,-7 3,6 z M 89,413 84.1,404 c -1,-2 -2.1,-4 -3.6,-4 -1.4,-1 -3,-1 -4.9,0 -1.1,1 -1.9,1 -2.4,2 -0.5,1 -0.9,2 -1,2 -0.1,1 0,2 0.2,3 0.2,0 0.5,1 0.9,2 l 4.9,10 z" />
	<path
   style="fill:#ffffff"
   inkscape:connector-curvature="0"
   id="path36"
   d="m 55,378 -2.1,-7 32.6,-26 2.1,7 -8.7,7 4.4,14 10.8,1 2,7 z m 22.9,-5 -3.4,-11 -14.2,10 v 1 z" />
	<path
   style="fill:#ffffff"
   inkscape:connector-curvature="0"
   id="path38"
   d="m 48.9,357 -5,-31 5.8,-1 2,12 32.3,-5 1.1,7 -32.3,5 2,12 z" />
	<path
   style="fill:#ffffff"
   inkscape:connector-curvature="0"
   id="path40"
   d="m 43.6,318 -0.4,-7 38.5,-2 0.4,6 z" />
	<path
   style="fill:#ffffff"
   inkscape:connector-curvature="0"
   id="path42"
   d="m 42.8,282 c 0.2,-3 0.9,-6 2.2,-8 1.2,-2 2.8,-4 4.8,-6 1.9,-1 4.2,-2 6.7,-3 2.5,0 5.1,-1 7.8,0 2.8,0 5.3,0 7.7,1 2.4,1 4.4,3 6.2,4 1.7,2 3,4 3.9,7 0.9,2 1.2,5 1,7 -0.2,3 -0.9,6 -2.1,8 -1.2,2 -2.8,4 -4.7,5 -1.9,2 -4.2,3 -6.7,4 -2.5,0 -5.1,1 -7.9,0 -2.7,0 -5.3,0 -7.7,-1 -2.4,-1 -4.4,-3 -6.2,-5 -1.7,-1 -3,-3 -4,-6 -0.8,-2 -1.2,-5 -1,-7 z m 5.5,0 c -0.1,2 0.1,4 0.9,5 0.7,2 1.7,3 3.1,4 1.3,1 2.8,2 4.6,3 1.7,0 3.5,0 5.3,1 1.8,0 3.6,0 5.4,-1 1.8,0 3.4,-1 4.9,-1 1.4,-1 2.6,-2 3.6,-4 0.9,-1 1.5,-3 1.6,-5 0.1,-2 -0.1,-4 -0.9,-5 -0.7,-2 -1.7,-3 -3.1,-4 -1.3,-1 -2.8,-2 -4.6,-3 -1.7,0 -3.5,0 -5.3,-1 -1.8,0 -3.6,0 -5.4,1 -1.8,0 -3.4,1 -4.9,1 -1.4,1 -2.6,2 -3.6,4 -0.9,1 -1.4,3 -1.6,5 z" />
	<path
   style="fill:#ffffff"
   inkscape:connector-curvature="0"
   id="path44"
   d="m 47.2,251 1.8,-7 31.9,-10 v 0 l -27.5,-7 1.6,-6 37.4,10 -1.8,7 -31.8,10 v 0 l 27.5,7 -1.6,6 z" />
	<path
   style="fill:#ffffff"
   inkscape:connector-curvature="0"
   id="path46"
   d="m 89.8,174 c -1.1,0 -2.2,0 -3.3,0 -1.1,0 -2.1,0 -3.1,1 -1,0 -1.9,0 -2.7,1 -0.8,1 -1.6,2 -2.3,3 -1,2 -1.5,4 -1.4,6 0,1 0.4,3 1.2,4 0.8,2 1.8,3 3.2,4 1.3,2 2.8,3 4.4,4 1.6,1 3.3,1 5.1,2 1.8,0 3.5,0 5.1,0 1.7,0 3.2,-1 5,-2 1,0 2,-2 3,-4 1,-1 1,-2 2,-4 0,-1 -1,-2 -1,-3 0,-1 -1,-2 -2,-3 -1,-1 -2,-2 -3,-3 l 3,-6 c 2,1 4,3 5,4 1,2 2,4 3,6 0,2 0,4 0,6 0,2 -1,4 -2,6 -1,3 -3,5 -5,6 -2,2 -4.3,3 -6.7,3 -2.4,1 -4.8,1 -7.4,0 -2.6,0 -5.1,-1 -7.5,-2 -2.4,-2 -4.5,-3 -6.2,-5 -1.8,-2 -3.1,-4 -3.9,-6 -0.9,-3 -1.2,-5 -1.1,-8 0.1,-2 0.9,-5 2.3,-7 1,-2 2.3,-4 3.7,-5 1.4,-2 3,-3 4.7,-3 1.7,-1 3.5,-1 5.3,-1 1.9,0 3.7,0 5.7,1 z" />
	<path
   style="fill:#ffffff"
   inkscape:connector-curvature="0"
   id="path48"
   d="m 114,159 -27.7,-3 4.8,-6 19.9,3 -7,-19 4,-6 10,26 12,9 -5,6 z" />
	<path
   style="fill:#ffffff"
   inkscape:connector-curvature="0"
   id="path50"
   d="m 115,121 5,-4 32,9 v 0 l -19,-21 5,-5 26,29 -5,5 -33,-9 v 0 l 20,21 -5,4 z" />
	<path
   style="fill:#ffffff"
   inkscape:connector-curvature="0"
   id="path52"
   d="m 162,82.1 c 3,-1.5 5,-2.5 8,-2.8 2,-0.3 5,-0.1 7,0.6 2,0.7 4,1.9 6,3.5 2,1.6 4,3.6 5,5.9 2,2.3 3,4.8 4,7.3 0,2.5 0,5.4 0,7.4 0,2 -1,5 -3,7 -1,2 -3,4 -5,5 -3,2 -5,3 -8,3 -2,0 -5,0 -7,0 -2,-1 -4,-2 -6,-4 -2,-2 -4,-4 -6,-6 -1,-2 -2,-5 -3,-7 0,-2.6 0,-5.1 0,-7.5 0,-2.4 1,-4.7 2,-6.8 2,-2.3 4,-4.1 6,-5.6 z m 3,4.6 c -2,1.1 -3,2.4 -4,3.9 -1,1.5 -1,3.1 -1,4.8 0,1.7 0,3.4 1,5.6 0,1 1,3 2,4 1,2 2,3 4,5 1,1 2,2 4,3 1,0 3,1 5,0 2,0 3,0 5,-1 2,-1 3,-3 4,-4 1,-2 1,-3 1,-5 0,-2 0,-3.5 -1,-5.2 0,-1.7 -1,-3.4 -2,-4.9 -1,-1.6 -2,-3 -3,-4.2 -2,-1.2 -3,-2.2 -5,-2.9 -1,-0.7 -3,-1 -5,-0.9 -1,0.1 -3,0.7 -5,1.8 z" />
	<path
   style="fill:#ffffff"
   inkscape:connector-curvature="0"
   id="path54"
   d="m 189,68 6,-2.6 13,30 18,-7.7 2,5.4 -24,9.9 z" />
	<path
   style="fill:#ffffff"
   inkscape:connector-curvature="0"
   id="path56"
   d="m 239,49.5 c 3,-0.7 5,-0.8 8,-0.3 2,0.5 4,1.5 6,2.9 2,1.4 4,3.2 5,5.4 2,2.2 3,4.6 4,7.3 0,2.7 0,5.3 0,7.9 0,2.6 -1,4.9 -2,7.1 -1,2.2 -2,4 -4,5.6 -2,1.6 -5,2.7 -8,3.4 -2,0.7 -5,0.8 -8,0.3 -2,-0.5 -4,-1.4 -6,-2.8 -2,-1.4 -4,-3.2 -5,-5.4 -2,-2.2 -3,-4.6 -3,-7.3 -1,-2.7 -1,-5.3 -1,-7.9 0,-2.6 1,-4.9 2,-7.1 1,-2.2 3,-4 5,-5.6 2,-1.7 4,-2.8 7,-3.5 z m 1,5.4 c -2,0.5 -4,1.3 -5,2.5 -1,1.2 -2,2.5 -3,4.1 0,1.6 -1,3.3 -1,5.1 0,1.8 1,3.6 1,5.4 0,1.8 1,3.5 2,5.1 1,1.6 2,3 3,4.1 1,1.1 3,1.9 4,2.4 2,0.5 4,0.4 6,-0.1 2,-0.5 3,-1.3 5,-2.5 1,-1.2 2,-2.5 3,-4.1 0,-1.6 0,-3.3 0,-5.1 0,-1.8 0,-3.6 0,-5.4 -1,-1.8 -1,-3.5 -2,-5.1 -1,-1.6 -2,-3 -3,-4.1 -1,-1.1 -3,-1.9 -4,-2.4 -2,-0.4 -4,-0.4 -6,0.1 z" />
	<path
   style="fill:#ffffff"
   inkscape:connector-curvature="0"
   id="path58"
   d="m 305,81 -4,0.2 -2,-4.5 c -1,2.1 -3,3.7 -5,4.6 -2,0.9 -4,1.4 -6,1.5 -3,0.2 -6,-0.2 -8,-1.2 -2,-0.9 -4,-2.3 -6,-4 -2,-1.7 -3,-3.8 -4,-6.2 -1,-2.4 -1,-5 -2,-7.7 0,-2.7 1,-5.3 1,-7.8 1,-2.5 2,-4.7 4,-6.6 1,-1.9 3,-3.5 5,-4.7 2,-1.2 5,-1.9 8,-2 2,-0.1 4,0.1 6,0.5 2,0.5 3,1.2 5,2.2 2,1 3,2.3 4,3.9 1,1.6 2,3.5 2,5.6 l -7,0.4 c 0,-1.2 0,-2.3 -1,-3.3 0,-1 -1,-1.7 -2,-2.3 -1,-0.6 -2,-1 -3,-1.3 -1,-0.3 -3,-0.4 -4,-0.3 -2,0.1 -4,0.6 -5,1.5 -1,0.9 -3,2.1 -4,3.5 0,1.4 -1,3 -1,4.8 -1,1.8 -1,3.6 -1,5.4 0,1.8 1,3.6 1,5.4 1,1.7 2,3.3 3,4.6 1,1.3 2,2.4 3,3.1 2,0.7 4,1.1 6,0.9 1,-0.1 3,-0.4 4,-0.9 2,-0.6 3,-1.3 4,-2.3 0,-1 1,-2.1 1,-3.5 1,-1.4 1,-2.8 1,-4.5 l -10,0.6 -1,-5.1 17,-0.9 z" />
	<path
   style="fill:#ffffff"
   inkscape:connector-curvature="0"
   id="path60"
   d="m 315,43.5 6,0.5 -2,38.5 -7,-0.5 z" />
	<path
   style="fill:#ffffff"
   inkscape:connector-curvature="0"
   id="path62"
   d="m 360,89.2 -3,3 -5,-5.9 c -2,0.5 -3,0.8 -5,0.9 -1,0.1 -3,-0.1 -4,-0.4 -3,-0.6 -6,-1.6 -8,-3.1 -2,-1.5 -3,-3.3 -5,-5.4 -1,-2.1 -2,-4.4 -2,-7 0,-2.6 0,-5.2 0,-7.9 1,-2.7 2,-5.1 3,-7.4 2,-2.2 3,-4.1 5,-5.6 2,-1.5 4,-2.5 7,-3.2 2,-0.6 5,-0.6 7,-0.1 3,0.6 6,1.6 8,3.1 2,1.5 3,3.3 5,5.4 1,2.1 2,4.4 2,7 0,2.6 0,5.2 0,7.9 -1,1.3 -1,2.6 -2,3.9 0,1.3 -1,2.5 -1,3.7 -1,1.2 -2,2.3 -3,3.3 0,1 -1,1.9 -3,2.6 z m -15,-12 4,-3 4,4.9 c 1,-1.2 2,-2.7 3,-4.4 1,-1.7 2,-3.6 2,-5.5 0,-1.8 0,-3.6 0,-5.4 0,-1.8 0,-3.5 -1,-5 0,-1.5 -1,-2.9 -3,-4 -1,-1.1 -3,-1.9 -5,-2.3 -2,-0.4 -3,-0.3 -5,0.2 -2,0.5 -3,1.4 -4,2.5 -2,1.2 -3,2.6 -3,4.2 -1,1.6 -2,3.4 -2,5.2 0,1.8 -1,3.6 0,5.4 0,1.8 0,3.5 1,5 0,1.5 1,2.9 3,4 1,1.1 3,1.9 5,2.3 0,0.1 1,0.2 2,0.2 1,0 1,-0.1 2,-0.3 z" />
	<path
   style="fill:#ffffff"
   inkscape:connector-curvature="0"
   id="path64"
   d="m 380,55.2 6,2.5 -8,20.9 c -1,1.2 -1,2.5 -2,3.7 0,1.3 0,2.5 0,3.7 0,1.2 1,2.3 2,3.4 0,1.1 2,2 4,2.8 2,0.8 4,1.1 5,0.9 1,-0.2 3,-0.7 4,-1.4 0,-0.8 1,-1.8 2,-2.9 1,-1.2 1,-2.4 2,-3.6 l 8,-20.9 6,2.5 -9,22.9 c -1,2.3 -2,4.2 -3,5.6 -2,1.4 -3,2.5 -5,3.1 -2,0.6 -4,0.9 -6,0.7 -2,-0.1 -4,-0.7 -6,-1.5 -2,-0.9 -4,-2 -6,-3.2 -1,-1.3 -3,-2.8 -3,-4.4 -1,-1.7 -2,-3.5 -2,-5.5 0,-2 1,-4.1 2,-6.4 z" />
	<path
   style="fill:#ffffff"
   inkscape:connector-curvature="0"
   id="path66"
   d="m 421,73 24,14.3 -3,5 -18,-10.8 -5,8.7 16,9.8 -2,5 -17,-10.1 -6,10.1 18,11 -3,5 -24,-15 z" />
	<path
   style="fill:#ffffff"
   inkscape:connector-curvature="0"
   id="path68"
   d="m 467,105 5,4 -25,29 -5,-4 z" />
	<path
   style="fill:#ffffff"
   inkscape:connector-curvature="0"
   id="path70"
   d="m 482,118 4,5 -9,32 v 0 l 21,-19 4,5 -28,25 -5,-5 9,-32 v 0 l -21,19 -4,-5 z" />
	<path
   style="fill:#ffffff"
   inkscape:connector-curvature="0"
   id="path72"
   d="m 508,149 17,26 -5,3 -6,-10 -28,17 -4,-5 28,-18 -7,-10 z" />
	<path
   style="fill:#ffffff"
   inkscape:connector-curvature="0"
   id="path74"
   d="m 529,184 12,25 -6,2 -8,-19 -9,4 7,18 -5,2 -7,-18 -11,5 9,20 -5,2 -12,-26 z" />
	<path
   style="fill:#ffffff"
   inkscape:connector-curvature="0"
   id="path76"
   d="m 545,220 4,18 c 2,4 1,7 0,10 -1,2 -3,4 -6,5 -2,0 -4,1 -5,0 -1,0 -2,0 -3,-1 -1,0 -2,-1 -2,-1 -1,-1 -1,-1 -1,-2 v 0 c 0,1 0,1 0,2 -1,1 -1,2 -1,2 -1,1 -1,2 -2,2 -1,1 -2,1 -4,2 -2,0 -4,1 -6,2 -1,1 -3,2 -3,2 l -2,-7 c 1,0 2,-1 3,-1 1,0 1,-1 2,-1 2,0 3,-1 5,-2 1,0 2,-1 2,-2 1,0 2,-1 2,-2 0,-1 0,-3 -1,-4 l -2,-10 -16,4 -1,-6 z m -15,11 2,11 c 1,2 2,3 3,4 1,1 3,1 5,1 1,-1 2,-1 3,-2 0,0 1,-1 1,-2 0,0 0,-1 0,-2 0,-1 0,-2 0,-2 l -3,-11 z" />
	<path
   style="fill:#ffffff"
   inkscape:connector-curvature="0"
   id="path78"
   d="m 555,263 v 7 l -26,20 v 0 l 28,-3 v 7 l -38,3 -1,-7 27,-20 v 0 l -28,2 -1,-6 z" />
	<path
   style="fill:#ffffff"
   inkscape:connector-curvature="0"
   id="path80"
   d="m 556,318 v 7 l -40,12 1,-8 10,-2 1,-16 -9,-4 v -7 z m -23,-4 -1,11 17,-4 v 0 z" />
	<path
   style="fill:#ffffff"
   inkscape:connector-curvature="0"
   id="path82"
   d="m 554,340 -6,30 -6,-1 3,-12 -32,-7 1,-7 32,7 3,-12 z" />
	<path
   style="fill:#ffffff"
   inkscape:connector-curvature="0"
   id="path84"
   d="m 545,378 -2,6 -37,-12 2,-6 z" />
	<path
   style="fill:#ffffff"
   inkscape:connector-curvature="0"
   id="path86"
   d="m 532,412 c -1,2 -2,5 -4,6 -2,2 -4,3 -7,3 -2,1 -5,1 -7,1 -3,0 -5,-1 -8,-2 -2,-1 -5,-3 -6,-5 -2,-2 -4,-4 -5,-6 -1,-2 -1,-4 -1,-7 0,-2 1,-5 2,-8 1,-2 3,-4 5,-6 2,-2 4,-3 6,-3 2,-1 5,-1 8,-1 2,1 5,1 7,3 3,1 5,2 7,4 1,2 3,4 4,6 1,2 1,5 1,7 0,3 0,5 -2,8 z m -5,-3 c 1,-1 2,-3 2,-5 0,-2 -1,-3 -2,-5 -1,-1 -2,-2 -3,-3 -2,-2 -3,-3 -5,-3 -1,-1 -3,-2 -5,-2 -2,-1 -3,-1 -5,0 -2,0 -3,1 -5,1 -1,1 -2,3 -3,5 -1,2 -1,3 -1,5 0,2 0,3 1,5 1,1 2,3 3,4 2,1 3,2 5,3 2,0 3,1 5,1 2,1 4,1 5,1 2,-1 4,-1 5,-2 1,-1 3,-3 3,-5 z" />
	<path
   style="fill:#ffffff"
   inkscape:connector-curvature="0"
   id="path88"
   d="m 517,438 -4,6 -33,-2 v 0 l 23,16 -4,6 -31,-23 4,-6 33,3 v -1 l -23,-16 4,-5 z" />
	<path
   style="fill:#ffffff"
   inkscape:connector-curvature="0"
   id="path90"
   d="m 482,481 -5,5 -37,-17 5,-5 9,5 11,-11 -4,-10 5,-5 z m -14,-18 -9,8 16,8 v 0 z" />
	<path
   style="fill:#ffffff"
   inkscape:connector-curvature="0"
   id="path92"
   d="m 459,502 -5,4 -19,-27 -16,12 -3,-5 21,-15 z" />
	<path
   style="fill:#ffffff"
   inkscape:connector-curvature="0"
   id="path94"
   d="m 430,522 -25,13 -3,-5 19,-10 -5,-9 -17,9 -3,-5 18,-9 -5,-10 -19,10 -3,-5 25,-13 z" />
</g><g
     id="g104">
	<path
   style="fill:#ffffff"
   inkscape:connector-curvature="0"
   id="path98"
   d="m 191,258 h 55 v 12 h -41 v 21 h 36 v 11 h -36 v 35 h -14 z" />
	<path
   style="fill:#ffffff"
   inkscape:connector-curvature="0"
   id="path100"
   d="m 334,283 c -1,-2 -1,-4 -2,-6 -1,-2 -3,-4 -4,-5 -2,-2 -4,-3 -6,-4 -2,-1 -5,-1 -8,-1 -4,0 -8,1 -11,3 -3,1 -5,4 -7,7 -2,2 -3,6 -4,9 -1,4 -2,8 -2,11 0,4 1,8 2,11 0,4 2,7 4,10 2,3 4,5 7,7 3,2 7,3 11,3 3,0 6,-1 8,-2 3,-1 5,-3 7,-4 1,-2 3,-5 4,-7 1,-3 1,-5 1,-8 h 14 c 0,5 -1,9 -3,13 -2,4 -4,7 -7,10 -3,3 -7,5 -11,7 -4,1 -8,2 -13,2 -6,0 -11,-1 -16,-3 -4,-3 -8,-6 -12,-9 -3,-4 -5,-8 -7,-13 -2,-5 -3,-11 -3,-17 0,-5 1,-11 3,-16 2,-5 4,-9 7,-13 4,-4 8,-7 12,-9 5,-2 10,-3 16,-3 5,0 9,1 13,2 4,1 7,3 10,5 3,2 5,5 7,9 2,3 3,7 4,11 z" />
	<path
   style="fill:#ffffff"
   inkscape:connector-curvature="0"
   id="path102"
   d="m 384,258 h 14 v 79 h -14 z" />
</g></g>
</svg>